<svg version="1.1" id="Lager_1" xmlns="http://www.w3.org/2000/svg" xmlns:xlink="http://www.w3.org/1999/xlink" x="0px" y="0px"
	 width="628.774px" height="137.049px" viewBox="0 0 628.774 137.049" enable-background="new 0 0 628.774 137.049"
	 xml:space="preserve">
<g>
	<path fill="#FFFFFF" d="M92.178,6c0-3.313-2.687-6-6-6s-6,2.687-6,6c0,18.798-15.292,34.09-34.089,34.09S12,24.798,12,6
		c0-3.313-2.687-6-6-6S0,2.687,0,6c0,17.166,9.439,32.159,23.393,40.09C9.439,54.021,0,69.014,0,86.18c0,3.314,2.687,6,6,6
		s6-2.686,6-6c0-18.797,15.292-34.09,34.089-34.09s34.089,15.293,34.089,34.09c0,3.314,2.687,6,6,6s6-2.686,6-6
		c0-17.164-9.439-32.158-23.393-40.09C82.739,38.159,92.178,23.166,92.178,6z"/>
	<path fill="#FFFFFF" d="M183.561,0.001c-6.951,0-13.363,2.342-18.498,6.272V6c0-3.313-2.687-6-6-6s-6,2.687-6,6v80.18
		c0,3.313,2.687,6,6,6s6-2.687,6-6V30.498c0-10.199,8.298-18.497,18.498-18.497s18.498,8.298,18.498,18.497c0,3.313,2.687,6,6,6
		s6-2.687,6-6C214.059,13.682,200.377,0.001,183.561,0.001z"/>
	<path fill="#FFFFFF" d="M278.147,0c-25.413,0-46.089,20.676-46.089,46.089s20.676,46.089,46.089,46.089l22.17,0.002
		c0,0,0,0,0.001,0c3.313,0,5.999-2.686,6-5.998c0.001-3.314-2.686-6.002-5.999-6.002l-22.172-0.002
		c-18.792,0-34.081-15.286-34.088-34.075c0-0.004,0-0.009,0-0.013c0-18.797,15.292-34.09,34.088-34.09
		c18.798,0,34.09,15.293,34.09,34.09v54.426c0,3.314,2.688,6,6,6c3.314,0,6-2.686,6-6V46.09C324.237,20.676,303.562,0,278.147,0z"/>
	<path fill="#FFFFFF" d="M470.505,3.114c-16.547,0-31.08,8.771-39.211,21.902C423.63,10.176,408.149,0,390.327,0
		c-13.494,0-25.652,5.83-34.09,15.104V6.001c0-3.313-2.686-6-6-6c-3.312,0-6,2.687-6,6V86.18c0,3.313,2.688,6,6,6
		c3.314,0,6-2.687,6-6V46.09c0-18.797,15.293-34.09,34.09-34.09s34.088,15.293,34.088,34.09c0,0.006,0.002,0.013,0.002,0.02v39.594
		c0,3.313,2.686,6,6,6c3.312,0,6-2.687,6-6V49.204c0-18.798,15.291-34.09,34.088-34.09s34.09,15.292,34.09,34.09v36.499
		c0,3.313,2.686,6,6,6c3.312,0,6-2.687,6-6V46.09c0-0.603-0.092-1.184-0.256-1.731C513.909,21.214,494.282,3.114,470.505,3.114z"/>
	<path fill="#FFFFFF" d="M582.685,0c-25.414,0-46.09,20.676-46.09,46.09v84.959c0,3.313,2.688,6,6,6c3.314,0,6-2.687,6-6V46.09
		c0-18.797,15.293-34.09,34.09-34.09c1.762,0,3.492,0.135,5.184,0.394c16.346,2.505,28.904,16.661,28.904,33.696
		c0,0.004,0.002,0.009,0.002,0.013c-0.008,18.79-15.299,34.075-34.092,34.075l-22.17,0.003c-3.312,0-5.998,2.688-5.998,6.001
		s2.688,5.999,6,5.999l22.17-0.003c25.414,0,46.09-20.676,46.09-46.089S608.099,0,582.685,0z"/>
	<circle fill="#FFFFFF" cx="118.621" cy="46.09" r="10.442"/>
</g>
</svg>
